{"title":"Oasis - Falling Down - DivX  [akhiugo]","uid":4717846,"size":49238034,"categoryP":"video","categoryS":"music_videos","magnet":"?xt=urn:btih:7550d561cfdfc596cc5a759483e7f6caa4be6971&amp;dn=Oasis+-+Falling+Down+-+DivX++%5Bakhiugo%5D&amp;tr=udp%3A%2F%2Ftracker.openbittorrent.com%3A80&amp;tr=udp%3A%2F%2Fopen.demonii.com%3A1337&amp;tr=udp%3A%2F%2Ftracker.coppersurfer.tk%3A6969&amp;tr=udp%3A%2F%2Fexodus.desync.com%3A6969","seeders":0,"leechers":1,"uploader":"akhiugo","files":-1,"time":1234370665,"description":"Falling Down is a song by rock band Oasis, featured on their 2008 seventh studio album Dig Out Your Soul. Written and sung by lead guitarist and principal songwriter Noel Gallagher, it is due to be released as the third single from the album on 9 March 2009, with the digital release ocurring a day earlier.\n\nThe song has been cited as Noel Gallagher's most recent and best attempt to emulate the atmosphere of the legendary Beatles track &quot;Tomorrow Never Knows.&quot;\n\n\nComplete name                    : Oasis - Falling Down- akhiugo.avi\nFormat                           : AVI\nFormat/Info                      : Audio Video Interleave\nFile size                        : 47.0 MiB\nDuration                         : 4mn 57s\nOverall bit rate                 : 1 322 Kbps\nWriting application              : Lavf51.12.1\n\nVideo\nFormat                           : MPEG-4 Visual\nFormat profile                   : Simple@L1\nFormat settings, BVOP            : No\nFormat settings, QPel            : No\nFormat settings, GMC             : No warppoints\nFormat settings, Matrix          : Default\nCodec ID                         : DX50\nCodec ID/Hint                    : DivX 5\nDuration                         : 4mn 57s\nBit rate                         : 1 181 Kbps\nWidth                            : 544 pixels\nHeight                           : 246 pixels\nDisplay aspect ratio             : 2.2\nFrame rate                       : 25.000 fps\nResolution                       : 24 bits\nColorimetry                      : 4:2:0\nScan type                        : Progressive\nBits/(Pixel*Frame)               : 0.353\nStream size                      : 41.9 MiB (89%)\nWriting library                  : Lavc51.40.4\n\nAudio\nFormat                           : MPEG Audio\nFormat version                   : Version 1\nFormat profile                   : Layer 3\nCodec ID                         : 55\nCodec ID/Hint                    : MP3\nDuration                         : 4mn 57s\nBit rate mode                    : Constant\nBit rate                         : 128 Kbps\nChannel(s)                       : 2 channels\nSampling rate                    : 48.0 KHz\nResolution                       : 16 bits\nStream size                      : 4.55 MiB (10%)\n\n\n\nPlease help your fellow pirates by seeding after download!","torrent":{"xt":"urn:btih:7550d561cfdfc596cc5a759483e7f6caa4be6971","amp;dn":"Oasis+-+Falling+Down+-+DivX++%5Bakhiugo%5D","amp;tr":["udp%3A%2F%2Ftracker.openbittorrent.com%3A80","udp%3A%2F%2Fopen.demonii.com%3A1337","udp%3A%2F%2Ftracker.coppersurfer.tk%3A6969","udp%3A%2F%2Fexodus.desync.com%3A6969"],"infoHash":"7550d561cfdfc596cc5a759483e7f6caa4be6971","infoHashBuffer":{"type":"Buffer","data":[117,80,213,97,207,223,197,150,204,90,117,148,131,231,246,202,164,190,105,113]},"announce":[],"urlList":[]}}